<?xml version="1.0" standalone="no"?>
<!DOCTYPE svg PUBLIC "-//W3C//DTD SVG 20010904//EN"
 "http://www.w3.org/TR/2001/REC-SVG-20010904/DTD/svg10.dtd">
<svg version="1.0" xmlns="http://www.w3.org/2000/svg"
 width="1024.000000pt" height="1024.000000pt" viewBox="0 0 1024.000000 1024.000000"
 preserveAspectRatio="xMidYMid meet">

<g transform="translate(0.000000,1024.000000) scale(0.100000,-0.100000)"
fill="#000000" stroke="none">
<path d="M5615 7210 c-660 -43 -1203 -191 -1899 -521 -225 -106 -531 -266
-632 -328 -55 -35 -34 -32 -444 -61 -1375 -97 -2235 -389 -2354 -799 -23 -77
-20 -221 5 -355 26 -135 22 -228 -15 -341 -14 -44 -26 -98 -26 -120 0 -111
114 -175 365 -206 118 -15 569 -19 643 -6 l42 7 36 -56 c118 -184 346 -345
571 -401 94 -24 341 -24 435 0 359 90 636 358 703 682 29 143 14 339 -36 469
-56 142 -194 306 -337 400 -94 62 -220 113 -341 138 -124 26 -334 21 -453 -11
-290 -76 -535 -296 -630 -563 -39 -110 -55 -243 -41 -350 5 -45 9 -85 7 -88
-7 -14 -598 20 -625 36 -4 2 2 34 12 71 27 98 25 229 -7 389 -31 158 -29 215
12 281 125 203 686 397 1404 487 407 51 432 52 3275 76 1329 11 1900 27 2640
70 950 56 1300 53 1784 -16 63 -9 135 -21 160 -28 41 -10 47 -15 62 -57 10
-25 30 -104 45 -175 25 -114 28 -150 28 -314 1 -146 -3 -198 -16 -248 -66
-236 -219 -366 -539 -457 -130 -37 -345 -85 -352 -79 -2 2 1 41 6 86 41 398
-255 779 -701 900 -101 28 -369 31 -477 6 -321 -73 -567 -291 -666 -588 -59
-178 -51 -396 21 -578 112 -279 378 -486 707 -548 113 -21 292 -14 413 16 101
25 249 93 334 154 79 56 192 176 240 254 l38 61 66 6 c312 30 659 125 849 231
119 67 249 188 293 274 19 38 20 58 20 552 0 475 -2 519 -20 590 -43 173 -52
178 -357 218 -334 45 -537 103 -888 255 -793 345 -1397 500 -2221 571 -213 18
-932 27 -1139 14z m895 -260 c606 -33 1091 -126 1627 -311 205 -71 559 -216
550 -225 -2 -2 -57 -6 -123 -9 -268 -11 -851 -37 -1359 -60 -297 -13 -632 -26
-745 -30 -697 -19 -2920 -41 -2890 -28 8 3 43 23 77 44 176 108 480 252 723
343 583 219 1358 319 2140 276z m1805 -1526 c168 -41 337 -176 409 -326 99
-208 58 -429 -113 -598 -157 -156 -366 -219 -581 -176 -133 27 -220 74 -315
170 -92 93 -127 152 -155 262 -24 91 -25 145 -5 237 58 276 334 471 635 450
36 -3 92 -11 125 -19z m-6010 -14 c111 -35 183 -78 265 -160 178 -178 219
-401 114 -619 -36 -74 -159 -197 -244 -244 -116 -64 -260 -92 -382 -75 -261
36 -450 196 -510 429 -90 360 214 714 597 695 52 -3 120 -14 160 -26z"/>
<path d="M3237 5453 c-4 -3 -7 -82 -7 -175 0 -129 3 -168 13 -168 8 0 17 28
25 76 14 90 51 176 84 197 12 9 39 17 58 19 l35 3 3 -435 c1 -239 0 -450 -3
-468 -5 -28 -11 -34 -50 -44 -25 -7 -45 -18 -45 -25 0 -10 34 -13 150 -13 121
0 150 3 150 14 0 8 -15 17 -35 20 -19 4 -39 15 -45 26 -6 12 -10 184 -10 469
l0 451 38 0 c21 0 47 -7 58 -15 31 -21 63 -104 76 -195 8 -55 15 -80 25 -80
10 0 13 35 13 175 l0 175 -263 0 c-145 0 -267 -3 -270 -7z"/>
<path d="M4970 5445 c0 -8 8 -15 18 -15 10 0 28 -7 40 -16 l22 -15 0 -463 0
-463 -25 -11 c-14 -7 -32 -12 -40 -12 -8 0 -15 -7 -15 -15 0 -12 18 -15 100
-15 80 0 100 3 100 14 0 8 -14 17 -30 21 -17 4 -35 15 -40 25 -7 12 -9 167 -8
422 l3 403 47 -240 c27 -132 64 -328 83 -435 31 -174 45 -223 59 -209 2 2 19
85 36 184 51 290 130 708 140 735 5 15 9 -145 9 -412 1 -425 0 -439 -19 -458
-11 -11 -29 -20 -40 -20 -11 0 -20 -7 -20 -15 0 -13 21 -15 130 -15 109 0 130
2 130 15 0 8 -8 15 -18 15 -10 0 -28 7 -40 16 l-22 15 0 450 c0 279 4 457 10
469 5 10 23 21 40 25 17 4 30 13 30 21 0 12 -19 14 -107 12 l-107 -3 -12 -70
c-36 -210 -106 -573 -114 -590 -8 -18 -9 -18 -9 5 -1 21 -101 571 -116 638 -5
21 -10 22 -110 22 -87 0 -105 -3 -105 -15z"/>
<path d="M4212 5400 c-45 -42 -40 -112 10 -139 37 -21 78 -5 100 37 39 78 -49
159 -110 102z"/>
<path d="M6263 5199 l-43 -20 0 -74 0 -75 -35 0 c-28 0 -35 -4 -35 -20 0 -16
7 -20 35 -20 l35 0 0 -250 c0 -207 3 -256 15 -281 16 -30 49 -49 85 -49 27 0
86 54 98 89 16 45 1 46 -35 4 l-33 -38 -20 24 c-19 22 -20 38 -20 262 l0 239
50 0 c43 0 50 3 50 20 0 17 -7 20 -51 20 l-51 0 4 95 c1 52 1 95 -2 94 -3 0
-24 -9 -47 -20z"/>
<path d="M3890 5032 c-26 -14 -45 -37 -70 -87 l-35 -68 0 -151 c0 -173 13
-225 70 -275 73 -64 159 -50 206 34 35 63 48 125 26 125 -10 0 -21 -19 -31
-54 -17 -59 -53 -96 -91 -96 -54 0 -85 83 -85 226 l0 74 111 0 112 0 -7 68
c-8 84 -48 169 -95 200 -41 27 -66 28 -111 4z m85 -46 c10 -14 19 -57 22 -100
l6 -76 -62 0 -61 0 0 58 c1 110 56 179 95 118z"/>
<path d="M4221 5026 c-68 -23 -91 -46 -47 -46 15 0 30 -8 36 -19 6 -12 10
-110 10 -250 0 -195 -2 -232 -16 -245 -8 -9 -22 -16 -30 -16 -8 0 -14 -7 -14
-15 0 -12 18 -15 105 -15 79 0 105 3 105 13 0 7 -13 18 -30 24 l-30 11 0 291
c0 227 -3 291 -12 290 -7 -1 -42 -11 -77 -23z"/>
<path d="M4475 5031 c-66 -40 -89 -119 -61 -213 17 -58 40 -85 136 -161 40
-31 57 -53 64 -79 17 -67 -18 -128 -73 -128 -42 0 -86 54 -102 125 -19 84 -34
63 -37 -53 -2 -87 0 -102 13 -102 9 0 18 7 22 15 5 14 7 14 22 1 24 -22 95
-31 130 -16 16 6 42 30 58 52 23 34 28 54 31 114 7 121 -19 169 -130 245 -66
45 -88 73 -88 109 0 31 37 70 66 70 30 0 71 -49 85 -102 7 -26 19 -50 26 -52
10 -4 13 17 13 94 0 100 -8 120 -34 85 -10 -14 -15 -14 -48 0 -48 19 -56 19
-93 -4z"/>
<path d="M5839 5027 c-48 -32 -96 -108 -110 -175 -19 -93 -8 -237 25 -308 42
-91 92 -134 156 -134 92 0 163 97 179 243 20 179 -38 343 -136 383 -46 20 -75
17 -114 -9z m113 -48 c44 -59 47 -428 4 -494 -28 -42 -53 -49 -80 -22 -34 34
-46 106 -46 275 1 156 11 225 38 255 22 24 61 18 84 -14z"/>
<path d="M6595 5036 c-42 -18 -79 -65 -106 -133 -19 -49 -23 -77 -23 -173 0
-135 22 -206 83 -270 62 -65 137 -66 201 -2 117 118 118 410 1 535 -51 55 -98
68 -156 43z m96 -56 c28 -37 42 -158 37 -310 -5 -162 -23 -215 -72 -215 -60 0
-86 83 -86 275 0 121 15 225 36 258 20 30 60 26 85 -8z"/>
<path d="M6970 5035 c-19 -8 -47 -16 -62 -19 -16 -4 -28 -13 -28 -21 0 -8 12
-15 28 -17 l27 -3 3 -253 2 -254 -30 -11 c-16 -6 -30 -17 -30 -24 0 -10 30
-13 125 -13 99 0 125 3 125 14 0 8 -16 16 -39 20 -22 3 -41 13 -45 22 -3 8 -6
106 -6 217 0 178 2 206 19 237 27 51 44 45 56 -20 8 -44 14 -55 30 -55 29 0
46 42 42 102 -4 57 -27 93 -60 93 -11 0 -37 -19 -59 -42 l-38 -41 0 41 c0 46
-4 48 -60 27z"/>
</g>
</svg>
